<svg width="400" height="400" viewBox="0 0 400 400" fill="none" xmlns="http://www.w3.org/2000/svg">
<g clip-path="url(#clip0_17_92)">
<path d="M200 175C137.961 175 50.0001 270.906 50.0001 331.445C50.0001 358.711 70.9455 375 106.047 375C144.203 375 169.399 355.406 200 355.406C230.867 355.406 256.133 375 293.953 375C329.055 375 350 358.711 350 331.445C350 270.906 262.039 175 200 175ZM84.9376 165.148C76.8126 138.078 51.7814 120.547 29.0314 125.984C6.28139 131.422 -5.57018 157.773 2.55482 184.844C10.6798 211.914 35.7111 229.445 58.4611 224.008C81.2111 218.57 93.0626 192.219 84.9376 165.148ZM151.125 148.914C175.297 142.555 187.391 109.898 178.141 75.9766C168.891 42.0547 141.797 19.7188 117.625 26.0781C93.4533 32.4375 81.3595 65.0938 90.6095 99.0156C99.8595 132.938 126.961 155.281 151.125 148.914ZM370.961 125.992C348.211 120.555 323.188 138.086 315.055 165.156C306.93 192.227 318.781 218.578 341.531 224.016C364.281 229.453 389.305 211.922 397.438 184.852C405.563 157.781 393.711 131.43 370.961 125.992ZM248.875 148.914C273.047 155.273 300.141 132.938 309.391 99.0156C318.641 65.0938 306.547 32.4453 282.375 26.0781C258.203 19.711 231.11 42.0547 221.86 75.9766C212.61 109.898 224.703 142.555 248.875 148.914Z" fill="#E26274"/>
</g>
<defs>
<clipPath id="clip0_17_92">
<rect width="400" height="400" fill="white"/>
</clipPath>
</defs>
</svg>
