<svg width="29" height="29" viewBox="0 0 29 29" fill="none" xmlns="http://www.w3.org/2000/svg">
<path d="M12.0004 10.5C8.27802 10.5 3.00036 16.2544 3.00036 19.8867C3.00036 21.5227 4.25708 22.5 6.36317 22.5C8.65255 22.5 10.1643 21.3244 12.0004 21.3244C13.8524 21.3244 15.3683 22.5 17.6375 22.5C19.7436 22.5 21.0004 21.5227 21.0004 19.8867C21.0004 16.2544 15.7227 10.5 12.0004 10.5ZM5.09661 9.90893C4.60911 8.28471 3.10723 7.23284 1.74223 7.55909C0.377235 7.88534 -0.333859 9.46643 0.153641 11.0907C0.641141 12.7149 2.14302 13.7667 3.50802 13.4305C4.87302 13.1142 5.58411 11.5332 5.09661 9.90893ZM9.06786 8.93487C10.5182 8.55331 11.2438 6.59393 10.6888 4.55862C10.1338 2.52331 8.50817 1.18315 7.05786 1.56471C5.60755 1.94628 4.88192 3.90565 5.43692 5.93096C5.99192 7.97628 7.61802 9.3169 9.06786 8.93487ZM22.258 7.55956C20.893 7.23331 19.3916 8.28518 18.9036 9.9094C18.4161 11.5336 19.1272 13.1147 20.4922 13.441C21.8572 13.7672 23.3586 12.7153 23.8466 11.0911C24.3341 9.4669 23.623 7.88581 22.258 7.55956ZM14.9329 8.93487C16.3832 9.31643 18.0088 7.97628 18.5638 5.93096C19.1188 3.90565 18.3932 1.94674 16.9429 1.56471C15.4925 1.18268 13.8669 2.52331 13.3119 4.55862C12.7569 6.59393 13.4825 8.55331 14.9329 8.93487Z" fill="black"/>
</svg>
