<svg width="24" height="24" viewBox="0 0 24 24" fill="none" xmlns="http://www.w3.org/2000/svg">
<path d="M12 20.25C9.81197 20.25 7.71355 19.3808 6.16638 17.8336C4.6192 16.2865 3.75001 14.188 3.75001 12H2.25001C2.25001 14.5859 3.27724 17.0658 5.10572 18.8943C6.93419 20.7228 9.41415 21.75 12 21.75V20.25ZM12 3.75001C14.188 3.75001 16.2865 4.6192 17.8336 6.16638C19.3808 7.71355 20.25 9.81197 20.25 12H21.75C21.75 9.41415 20.7228 6.93419 18.8943 5.10572C17.0658 3.27724 14.5859 2.25001 12 2.25001V3.75001ZM3.75001 12C3.75001 9.72201 4.67301 7.66001 6.16601 6.16601L5.10601 5.10601C4.19938 6.0104 3.48035 7.085 2.99023 8.26808C2.50011 9.45116 2.24855 10.7194 2.25001 12H3.75001ZM6.16601 6.16601C6.93124 5.3987 7.84061 4.79025 8.84183 4.37562C9.84304 3.96099 10.9163 3.74838 12 3.75001V2.25001C10.7194 2.24855 9.45116 2.50011 8.26808 2.99023C7.085 3.48035 6.0104 4.19938 5.10601 5.10601L6.16601 6.16601ZM5.10601 6.16601L17.834 18.894L18.894 17.834L6.16601 5.10601L5.10601 6.16601ZM20.25 12C20.25 14.278 19.327 16.34 17.834 17.834L18.894 18.894C19.8006 17.9896 20.5197 16.915 21.0098 15.7319C21.4999 14.5488 21.7515 13.2806 21.75 12H20.25ZM17.834 17.834C17.0688 18.6013 16.1594 19.2098 15.1582 19.6244C14.157 20.039 13.0837 20.2516 12 20.25V21.75C13.2806 21.7515 14.5488 21.4999 15.7319 21.0098C16.915 20.5197 17.9896 19.8006 18.894 18.894L17.834 17.834Z" fill="black"/>
</svg>
