<svg width="1000" height="1528" viewBox="0 0 1000 1528" fill="none" xmlns="http://www.w3.org/2000/svg">
<path d="M20 39.4899V1491C20 1492.1 20.8954 1493 22 1493H983C984.105 1493 985 1492.1 985 1491V39.4899C985 37.7585 982.949 36.8451 981.662 38.0032L788.632 211.685C788.264 212.015 787.788 212.198 787.294 212.198H217.706C217.212 212.198 216.736 212.015 216.368 211.685L23.3377 38.0032C22.0506 36.8451 20 37.7585 20 39.4899Z" stroke="black" stroke-width="25"/>
<path d="M340 432.5C340 444.926 329.926 455 317.5 455C305.074 455 295 444.926 295 432.5C295 420.074 305.074 410 317.5 410C329.926 410 340 420.074 340 432.5Z" fill="black" stroke="black" stroke-width="10"/>
<path d="M710 432.5C710 444.926 699.926 455 687.5 455C675.074 455 665 444.926 665 432.5C665 420.074 675.074 410 687.5 410C699.926 410 710 420.074 710 432.5Z" fill="black" stroke="black" stroke-width="10"/>
<path d="M260 520L412.969 586.524C413.758 586.867 413.774 587.982 412.994 588.347L260 660" stroke="black" stroke-width="15"/>
<path d="M745 520L592.031 586.524C591.242 586.867 591.226 587.982 592.006 588.347L745 660" stroke="black" stroke-width="15"/>
<path d="M499.134 588.5C499.519 589.167 500.481 589.167 500.866 588.5L525.115 546.5C525.5 545.833 525.019 545 524.249 545H475.751C474.981 545 474.5 545.833 474.885 546.5L499.134 588.5Z" fill="black" stroke="black" stroke-width="5"/>
<path d="M500 585C498.405 637.307 468.171 723.772 360 651.177" stroke="black" stroke-width="11"/>
<path d="M500 585C501.6 637.535 531.52 723.875 640 650.963" stroke="black" stroke-width="11"/>
</svg>
